HIERARCHY
ROOT Hips
{
    OFFSET   0.000000   0.000000   0.000000
    CHANNELS 6 Xposition Yposition Zposition Zrotation Xrotation Yrotation
    JOINT Chest
    {
        OFFSET   0.000000   8.007230   0.000000
        CHANNELS 3 Zrotation Xrotation Yrotation
        JOINT Chest2
        {
            OFFSET   0.000000  22.077100   0.000000
            CHANNELS 3 Zrotation Xrotation Yrotation
            JOINT Neck
            {
                OFFSET   0.000000  23.255100   0.000000
                CHANNELS 3 Zrotation Xrotation Yrotation
                JOINT Head
                {
                    OFFSET   0.000000  14.370100   1.956600
                    CHANNELS 3 Zrotation Xrotation Yrotation
                    End Site
                    {
                        OFFSET   0.000000  19.566000   0.000000
                    }
                }
            }
            JOINT LeftCollar
            {
                OFFSET   3.911900  19.017000  -0.467063
                CHANNELS 3 Zrotation Xrotation Yrotation
                JOINT LeftShoulder
                {
                    OFFSET  10.383700   0.000000   0.000000
                    CHANNELS 3 Zrotation Xrotation Yrotation
                    JOINT LeftElbow
                    {
                        OFFSET  26.662100   0.001193   0.000980
                        CHANNELS 3 Zrotation Xrotation Yrotation
                        JOINT LeftWrist
                        {
                            OFFSET  28.869000  -0.000059  -0.000082
                            CHANNELS 3 Zrotation Xrotation Yrotation
                            JOINT LeftFinger0
                            {
                                OFFSET   2.044650  -2.323450   3.252850
                                CHANNELS 3 Zrotation Xrotation Yrotation
                                JOINT LeftFinger01
                                {
                                    OFFSET   3.088130   0.000000   0.000000
                                    CHANNELS 3 Zrotation Xrotation Yrotation
                                    JOINT LeftFinger02
                                    {
                                        OFFSET   2.639460   0.000000   0.000000
                                        CHANNELS 3 Zrotation Xrotation Yrotation
                                        End Site
                                        {
                                            OFFSET   2.582190   0.000000   0.000000
                                        }
                                    }
                                }
                            }
                            JOINT LeftFinger1
                            {
                                OFFSET   8.364480   0.000000   3.252850
                                CHANNELS 3 Zrotation Xrotation Yrotation
                                JOINT LeftFinger11
                                {
                                    OFFSET   4.646930   0.000000   0.000000
                                    CHANNELS 3 Zrotation Xrotation Yrotation
                                    JOINT LeftFinger12
                                    {
                                        OFFSET   2.323470   0.000000   0.000000
                                        CHANNELS 3 Zrotation Xrotation Yrotation
                                        End Site
                                        {
                                            OFFSET   2.273050   0.000000   0.000000
                                        }
                                    }
                                }
                            }
                            JOINT LeftFinger2
                            {
                                OFFSET   8.364490   0.000016   1.078090
                                CHANNELS 3 Zrotation Xrotation Yrotation
                                JOINT LeftFinger21
                                {
                                    OFFSET   5.111610   0.000000   0.000000
                                    CHANNELS 3 Zrotation Xrotation Yrotation
                                    JOINT LeftFinger22
                                    {
                                        OFFSET   2.788150   0.000016   0.000000
                                        CHANNELS 3 Zrotation Xrotation Yrotation
                                        End Site
                                        {
                                            OFFSET   2.727660   0.000000   0.000000
                                        }
                                    }
                                }
                            }
                            JOINT LeftFinger3
                            {
                                OFFSET   7.899780   0.000015  -1.078090
                                CHANNELS 3 Zrotation Xrotation Yrotation
                                JOINT LeftFinger31
                                {
                                    OFFSET   4.646930   0.000000   0.000000
                                    CHANNELS 3 Zrotation Xrotation Yrotation
                                    JOINT LeftFinger32
                                    {
                                        OFFSET   2.323470   0.000000   0.000000
                                        CHANNELS 3 Zrotation Xrotation Yrotation
                                        End Site
                                        {
                                            OFFSET   2.273050   0.000000   0.000000
                                        }
                                    }
                                }
                            }
                            JOINT LeftFinger4
                            {
                                OFFSET   7.435090   0.000000  -3.252850
                                CHANNELS 3 Zrotation Xrotation Yrotation
                                JOINT LeftFinger41
                                {
                                    OFFSET   3.717550   0.000000   0.000000
                                    CHANNELS 3 Zrotation Xrotation Yrotation
                                    JOINT LeftFinger42
                                    {
                                        OFFSET   1.858770   0.000000   0.000000
                                        CHANNELS 3 Zrotation Xrotation Yrotation
                                        End Site
                                        {
                                            OFFSET   1.818440   0.000000   0.000000
                                        }
                                    }
                                }
                            }
                        }
                    }
                }
            }
            JOINT RightCollar
            {
                OFFSET  -3.911910  19.017000  -0.467062
                CHANNELS 3 Zrotation Xrotation Yrotation
                JOINT RightShoulder
                {
                    OFFSET -10.383700   0.000014   0.000000
                    CHANNELS 3 Zrotation Xrotation Yrotation
                    JOINT RightElbow
                    {
                        OFFSET -26.662100   0.001225   0.001091
                        CHANNELS 3 Zrotation Xrotation Yrotation
                        JOINT RightWrist
                        {
                            OFFSET -28.869000  -0.000020  -0.000085
                            CHANNELS 3 Zrotation Xrotation Yrotation
                            JOINT RightFinger0
                            {
                                OFFSET  -2.044650  -2.323490   3.252850
                                CHANNELS 3 Zrotation Xrotation Yrotation
                                JOINT RightFinger01
                                {
                                    OFFSET  -3.088130   0.000000   0.000000
                                    CHANNELS 3 Zrotation Xrotation Yrotation
                                    JOINT RightFinger02
                                    {
                                        OFFSET  -2.639460   0.000000   0.000000
                                        CHANNELS 3 Zrotation Xrotation Yrotation
                                        End Site
                                        {
                                            OFFSET  -2.582190   0.000000   0.000000
                                        }
                                    }
                                }
                            }
                            JOINT RightFinger1
                            {
                                OFFSET  -8.364480   0.000000   3.252850
                                CHANNELS 3 Zrotation Xrotation Yrotation
                                JOINT RightFinger11
                                {
                                    OFFSET  -4.646930   0.000000   0.000000
                                    CHANNELS 3 Zrotation Xrotation Yrotation
                                    JOINT RightFinger12
                                    {
                                        OFFSET  -2.323470   0.000000   0.000000
                                        CHANNELS 3 Zrotation Xrotation Yrotation
                                        End Site
                                        {
                                            OFFSET  -2.273050   0.000000   0.000000
                                        }
                                    }
                                }
                            }
                            JOINT RightFinger2
                            {
                                OFFSET  -8.364480   0.000000   1.078090
                                CHANNELS 3 Zrotation Xrotation Yrotation
                                JOINT RightFinger21
                                {
                                    OFFSET  -5.111620   0.000000   0.000000
                                    CHANNELS 3 Zrotation Xrotation Yrotation
                                    JOINT RightFinger22
                                    {
                                        OFFSET  -2.788160   0.000000   0.000000
                                        CHANNELS 3 Zrotation Xrotation Yrotation
                                        End Site
                                        {
                                            OFFSET  -2.727660   0.000000   0.000000
                                        }
                                    }
                                }
                            }
                            JOINT RightFinger3
                            {
                                OFFSET  -7.899780   0.000000  -1.078090
                                CHANNELS 3 Zrotation Xrotation Yrotation
                                JOINT RightFinger31
                                {
                                    OFFSET  -4.646930   0.000000   0.000000
                                    CHANNELS 3 Zrotation Xrotation Yrotation
                                    JOINT RightFinger32
                                    {
                                        OFFSET  -2.323470   0.000000   0.000000
                                        CHANNELS 3 Zrotation Xrotation Yrotation
                                        End Site
                                        {
                                            OFFSET  -2.273050   0.000000   0.000000
                                        }
                                    }
                                }
                            }
                            JOINT RightFinger4
                            {
                                OFFSET  -7.435090   0.000000  -3.252850
                                CHANNELS 3 Zrotation Xrotation Yrotation
                                JOINT RightFinger41
                                {
                                    OFFSET  -3.717550   0.000000   0.000000
                                    CHANNELS 3 Zrotation Xrotation Yrotation
                                    JOINT RightFinger42
                                    {
                                        OFFSET  -1.858760   0.000000   0.000000
                                        CHANNELS 3 Zrotation Xrotation Yrotation
                                        End Site
                                        {
                                            OFFSET  -1.818440   0.000000   0.000000
                                        }
                                    }
                                }
                            }
                        }
                    }
                }
            }
        }
    }
    JOINT LeftHip
    {
        OFFSET   9.783030   0.000000   0.000000
        CHANNELS 3 Zrotation Xrotation Yrotation
        JOINT LeftKnee
        {
            OFFSET   0.000063 -41.789100   0.000608
            CHANNELS 3 Zrotation Xrotation Yrotation
            JOINT LeftAnkle
            {
                OFFSET   0.000048 -41.133200  -0.000184
                CHANNELS 3 Zrotation Xrotation Yrotation
                JOINT LeftToe
                {
                    OFFSET   0.000000  -6.358960  14.674500
                    CHANNELS 3 Zrotation Xrotation Yrotation
                    End Site
                    {
                        OFFSET   0.000000   0.000000   3.913200
                    }
                }
            }
        }
    }
    JOINT RightHip
    {
        OFFSET  -9.783030   0.000000   0.000000
        CHANNELS 3 Zrotation Xrotation Yrotation
        JOINT RightKnee
        {
            OFFSET   0.000071 -41.789100   0.001239
            CHANNELS 3 Zrotation Xrotation Yrotation
            JOINT RightAnkle
            {
                OFFSET   0.000037 -41.133200  -0.000166
                CHANNELS 3 Zrotation Xrotation Yrotation
                JOINT RightToe
                {
                    OFFSET   0.000000  -6.358960  14.674500
                    CHANNELS 3 Zrotation Xrotation Yrotation
                    End Site
                    {
                        OFFSET   0.000000   0.000000   3.913200
                    }
                }
            }
        }
    }
}
MOTION
Frames: 5
Frame Time:   0.016667
 -0.071457  89.557500   1.909410  -1.099290 -11.206900   3.386260   0.297724   6.360250   1.181520   0.466749  12.725300   2.351530  -1.903900  -0.615482  -0.026089  -3.128440  -1.243890  -2.788990  -3.587910   1.083880   0.994075 -46.844800  -1.985290 -56.409700   5.740690 -23.921800 -121.194000 -23.311800 -58.872100  -5.229520  44.613900  32.104600 -69.994700  -0.892815   0.001914   0.000106   4.553590   0.002152  -0.000979 -88.996300   5.001100  -0.086244 -75.671700   0.000808   0.002030 -56.753700   0.000140   0.000846 -88.994700   0.001844   0.003052 -89.103700   0.001888   0.003558 -66.827800  -0.003301   0.001360 -81.946500  -4.951040   0.699689 -81.976800   0.003149   0.002368 -61.482600  -0.001968   0.001006 -31.017700  -8.002850  13.055100 -47.909200  -0.000808  -0.004603 -31.907600   0.007228   0.000590   8.525690   2.233840   6.848500  64.981200  25.780700   2.691890  -2.019330  -3.919370  15.625000 -11.745500 -13.908000  -2.413380 -38.467100  30.686800  61.070900  30.933500   0.003385  -0.001915  10.466700   0.000523  -0.001990  29.214600   9.917260  17.115300  25.127100  -0.010163   0.004150  17.589000  -0.000219   0.001769  28.184900   5.303140   9.780020  38.007500  -0.003410  -0.000357  25.313000  -0.002698   0.000762  27.414100   1.960430   3.773670  29.095900  -0.004485   0.003419  19.377800   0.000862   0.000603  32.232700   0.832064   1.324330  48.363500  -0.001468  -0.002936  32.210200   0.002913   0.000201   1.933090  12.564500   4.043160   1.070050   0.049149   8.059030  -2.247970  -2.365360   0.715504  -0.000000   0.000000  -0.000000   3.140640  13.874100  -1.833210   0.186230   1.343520 -12.440000  -1.164430  -5.829320  -3.666830  -0.000000   0.000000   0.000000
 -0.072498  89.557600   1.903500  -1.106230 -11.181200   3.355360   0.289931   6.333960   1.213710   0.447985  12.672700   2.417320  -1.851080  -0.616449  -0.026030  -3.041920  -1.245790  -2.878010  -3.620030   1.132150   0.923544 -46.960200  -2.004530 -56.352900   5.693290 -23.785700 -121.366000 -23.557900 -58.743800  -5.377940  44.969500  32.288400 -69.926200  -0.588480   0.001971   0.000105   4.705770   0.002166  -0.001012 -88.996300   5.001090  -0.086342 -75.474000   0.000776   0.002053 -56.605400   0.000092   0.000884 -88.829800   0.001830   0.003181 -88.804000   0.001826   0.003583 -66.603000  -0.003305   0.001361 -81.645000  -4.951700   0.725654 -81.676500   0.003108   0.002407 -61.257400  -0.001964   0.001056 -30.624300  -7.967710  13.180100 -47.319400  -0.000814  -0.004824 -31.514800   0.007172   0.000516   8.543770   2.251560   6.788590  65.010600  25.773300   2.697630  -1.993160  -3.946660  15.536600 -11.738700 -13.892600  -2.440040 -38.444000  30.709900  61.140700  30.962600   0.003359  -0.001891  10.481300   0.000601  -0.001964  29.224400   9.913810  17.105600  25.133800  -0.010131   0.004104  17.593700  -0.000212   0.001780  28.184700   5.303150   9.781500  38.009500  -0.003352  -0.000428  25.314400  -0.002676   0.000732  27.414800   1.955200   3.763370  29.101300  -0.004477   0.003358  19.381400   0.000869   0.000602  32.251000   0.831580   1.317640  48.390900  -0.001539  -0.002929  32.228400   0.002937   0.000241   1.929460  12.565400   4.036520   1.066190   0.000858   8.073330  -2.243390  -2.341910   0.741001  -0.000000   0.000000  -0.000000   3.130020  13.849200  -1.834640   0.187275   1.323950 -12.429000  -1.160810  -5.815850  -3.640760  -0.000000   0.000000  -0.000000
 -0.073514  89.557800   1.892100  -1.113740 -11.149500   3.323720   0.280929   6.305990   1.243510   0.426624  12.616600   2.478410  -1.799900  -0.603683  -0.025959  -2.957980  -1.220190  -2.976210  -3.656320   1.171520   0.873135 -46.900700  -1.978340 -56.410300   5.678280 -23.809100 -121.164000 -23.319800 -58.655900  -5.175250  45.269600  32.490800 -69.988200  -0.343566   0.002032   0.000052   4.828240   0.002176  -0.001042 -88.996300   5.001080  -0.086435 -75.384200   0.000745   0.002077 -56.538100   0.000049   0.000920 -88.759400   0.001817   0.003293 -88.645400   0.001758   0.003608 -66.484000  -0.003301   0.001362 -81.455100  -4.952330   0.742004 -81.487200   0.003072   0.002440 -61.115500  -0.001963   0.001108 -30.310800  -7.963610  13.328700 -46.864500  -0.000820  -0.005047 -31.211800   0.007112   0.000446   8.556670   2.266490   6.757370  65.042000  25.775200   2.697280  -1.941360  -3.981520  15.436900 -11.705600 -13.824300  -2.443040 -38.430500  30.724000  61.204900  30.966700   0.003347  -0.001919  10.483400   0.000671  -0.001933  29.213000   9.907640  17.106400  25.123800  -0.010099   0.004046  17.586700  -0.000213   0.001787  28.184200   5.303090   9.786760  37.974900  -0.003287  -0.000504  25.291300  -0.002651   0.000703  27.410100   1.959270   3.771930  29.079900  -0.004468   0.003305  19.367200   0.000870   0.000603  32.255400   0.830966   1.316060  48.397400  -0.001607  -0.002920  32.232600   0.002961   0.000280   1.928480  12.533400   4.028660   1.064310   0.012107   8.085790  -2.242800  -2.347750   0.765501  -0.000000   0.000000   0.000000   3.117990  13.816800  -1.836440   0.187381   1.308670 -12.412900  -1.157290  -5.802470  -3.616010   0.000000   0.000000   0.000000
 -0.074327  89.558000   1.877990  -1.120860 -11.120700   3.293530   0.273559   6.281790   1.270470   0.409674  12.568100   2.533630  -1.755960  -0.583709  -0.025881  -2.885530  -1.180200  -3.072600  -3.688370   1.200590   0.849872 -46.745200  -1.911570 -56.539300   5.673930 -23.915300 -120.765000 -22.867700 -58.600300  -4.819030  45.462200  32.615300 -70.052800  -0.211112   0.002096   0.000000   4.894480   0.002188  -0.001075 -88.996300   5.001080  -0.086527 -75.360300   0.000719   0.002099 -56.520200   0.000000   0.000955 -88.736100   0.001803   0.003405 -88.590200   0.001690   0.003635 -66.442600  -0.003296   0.001363 -81.374100  -4.952930   0.748974 -81.406500   0.003037   0.002472 -61.054900  -0.001961   0.001159 -30.141400  -7.965520  13.422500 -46.620300  -0.000825  -0.005269 -31.049100   0.007052   0.000374   8.562490   2.274310   6.747110  65.066300  25.779400   2.694620  -1.885220  -4.004580  15.342500 -11.666400 -13.731800  -2.442600 -38.428700  30.723800  61.250700  30.967300   0.003338  -0.001948  10.483700   0.000735  -0.001902  29.187200   9.903740  17.114000  25.102700  -0.010068   0.003985  17.571900  -0.000219   0.001793  28.183500   5.303000   9.794170  37.912500  -0.003223  -0.000580  25.249800  -0.002628   0.000675  27.400800   1.970730   3.795430  29.039000  -0.004456   0.003253  19.339900   0.000870   0.000604  32.256000   0.830599   1.315840  48.398300  -0.001675  -0.002910  32.233200   0.002985   0.000319   1.927880  12.487100   4.023590   1.061890   0.028846   8.096590  -2.242280  -2.353590   0.788323   0.000000   0.000000   0.000000   3.107340  13.785700  -1.837460   0.186782   1.295370 -12.396700  -1.154090  -5.788620  -3.594040   0.000000   0.000000   0.000000
 -0.074725  89.558100   1.862140  -1.126060 -11.105400   3.269650   0.270759   6.268150   1.288820   0.402776  12.540900   2.571000  -1.725430  -0.567639  -0.025794  -2.835030  -1.148030  -3.153170  -3.707200   1.210490   0.856692 -46.445900  -1.777900 -56.728100   5.732620 -24.199900 -120.198000 -22.254200 -58.585800  -4.381440  45.306000  32.541000 -70.061800  -0.258806   0.002163   0.000108   4.870620   0.002208  -0.001115 -88.996300   5.001060  -0.086616 -75.503500   0.000707   0.002115 -56.627600  -0.000071   0.000991 -88.882200   0.001785   0.003527 -88.776300   0.001627   0.003668 -66.582200  -0.003295   0.001361 -81.543700  -4.953510   0.734268 -81.575500   0.003002   0.002513 -61.181600  -0.001958   0.001206 -30.236000  -7.996960  13.416900 -46.767300  -0.000826  -0.005491 -31.147000   0.006997   0.000298   8.558830   2.274510   6.762830  65.080600  25.786700   2.675990  -1.837150  -4.005720  15.275200 -11.627900 -13.644800  -2.429160 -38.438400  30.704400  61.261400  30.935700   0.003326  -0.001915  10.467900   0.000796  -0.001881  29.148100   9.908750  17.147100  25.073500  -0.010041   0.003927  17.551500  -0.000231   0.001801  28.182700   5.302890   9.802800  37.846800  -0.003164  -0.000654  25.206000  -0.002608   0.000651  27.389100   1.991560   3.837340  28.990100  -0.004441   0.003190  19.307300   0.000870   0.000605  32.238800   0.834018   1.322140  48.372600  -0.001743  -0.002904  32.216100   0.003010   0.000362   1.924100  12.461900   4.023490   1.062580   0.039559   8.105930  -2.241390  -2.353510   0.804167   0.000000   0.000000  -0.000000   3.101660  13.768600  -1.835990   0.184549   1.280340 -12.385500  -1.152090  -5.772570  -3.581080  -0.000000   0.000000  -0.000000
